<?xml version="1.0" encoding="UTF-8"?>
<svg id="Ebene_1" data-name="Ebene 1" xmlns="http://www.w3.org/2000/svg" viewBox="0 0 200 56.84">
  <defs>
    <style>
  
       path {
            fill: black;
        }
        @media (prefers-color-scheme: dark) {
            path { fill: white; }
        }
    </style>
  </defs>
  <path class="cls-1" d="M56.69,34.23c-2.51,1.67-5.84,2.7-9.84,2.7-8.52,0-14.01-4.74-14.01-14.18s4.87-15.73,15.49-15.73c2.57,0,5.32.28,7.38.92v9.67h-3.68c-.75-1.14-1.43-3.16-1.65-4.49-.78-.58-2.03-.86-3.47-.86-2.81,0-4.78,3.97-4.78,9.12,0,6.01,3.41,9.07,8.04,9.07,1.72,0,3.73-.34,5.26-1.03l1.26,4.83M84.94,33.98l-1.1-3.92c-1.79.92-3.87,1.21-5.83,1.21-5.02,0-8.42-3.06-8.42-9.69,0-5.83,1.96-9.99,5.49-9.99,1.33,0,2.6.23,3.58.8.3,1.5.97,3.34,1.79,4.74h3.53V7.94c-2.02-.58-4.85-.93-7.45-.93-10.16,0-15.01,6.29-15.01,15.76s5.72,14.15,13.58,14.15c3.92,0,7.45-1.16,9.88-2.95M114.85,19.37c0,.86,0,1.68-.06,2.31h-18.3v.69c0,6.76,3.23,9.93,8.89,9.93,2.77,0,6.12-.8,8.26-2.13l1.04,2.95c-3.18,2.26-7.23,3.81-11.67,3.81-8.31,0-13.28-5.02-13.28-14.9,0-8.72,4.61-15.01,13.17-15.01s11.95,4.8,11.95,12.36M108.15,18.5c.06-4.5-1.79-8.09-5.55-8.09s-5.72,3.64-6.07,8.09h11.61M152.91,36.36v-1.74c-1.21-.64-2.78-1.33-4.23-1.74.23-4.22.3-9.14.3-13.02,0-8.68-2.95-12.86-9.2-12.86-4.98,0-8.75,2.84-10.19,6.36l-.11-.06c.23-1.33.41-4.05.41-5.97-3.19-.11-7.18.17-9.78.69v1.79c1.51.3,3.08.64,4.4,1.1v21.94c-1.62.41-3.01.99-4.4,1.74v1.74h13.72v-1.68c-1.04-.64-2.55-1.33-3.88-1.74v-12.69c0-4.46,2.61-9.61,7.76-9.61,4.57,0,5.84,4.29,5.84,10.65,0,3.53-.06,8.23-.28,11.64-1.33.35-2.84,1.1-3.94,1.74v1.68h13.6-.01ZM173.13,33.54l-.85-1.72c-1.83,1.14-3.4,1.72-5.07,1.72-2.24,0-2.89-1.33-2.89-6.03V10.27h8.3v-2.3h-8.3V0h-2.74l-2.19,7.99h-4.19v2.3h4.3v18.78c0,5.39,1.95,7.87,5.8,7.87,2.88,0,5.46-1.44,7.82-3.39M180.77,21.51c0,8.33,3.7,12.38,9.91,12.38,2.94,0,6.45-.93,8.57-2.53l.76,1.23c-2.94,2.53-6.86,4.35-11.09,4.35-8.1,0-12.49-5.11-12.49-15.07,0-8.57,4.11-14.83,12.26-14.83s11.2,4.68,11.2,11.73v1.82h-19.12s0,.93,0,.93ZM195.37,18.74c0-5.63-2.34-9.85-6.99-9.85s-7.04,4.22-7.51,9.85h14.49ZM28.6,32.08c-2.74,1.89-4.91,3.15-9.44,4.85-.83-1-1.62-2.62-2.12-4.3h-.06c-1.62,2.57-4.74,4.3-8.48,4.3-5.5,0-8.51-3.43-8.51-8.65s7.34-9.44,15.38-9.38v-2.79c0-1.74-1.45-2.88-3.23-2.91-1.35-.01-2.33.4-2.78.89-.48,1.04-1.06,2.38-1.51,3.4H2.22v-9.05c3.68-.95,7.37-1.45,11.83-1.45,8.93,0,11.32,3.92,11.32,9v8.14c0,1,.01,2.34.18,3.23.59-.06.87-.08,1.5-.18l1.57,4.85M15.4,23.61c-5.14,0-6.62,1.85-6.62,3.41,0,1.89,1.1,3.08,2.88,3.08,1.51,0,3.74-1.45,3.74-4.19v-2.3ZM195.09,52.59l-3.4-5.7h1.16l2.81,4.84,2.78-4.84h1.09l-3.41,5.73v4.06h-1v-4.09h-.01ZM185.49,47.68h-2.84v-.8h6.66v.8h-2.84v8.99h-.99v-8.99h0ZM177.97,46.89h1v9.79h-1v-9.79ZM169.35,46.89h1v8.99h4.28v.8h-5.28v-9.79ZM163.52,53.24l-1.93-5.42s-1.3,3.92-1.89,5.42h3.82ZM161.07,46.89h1.11l3.73,9.79h-1.1l-.99-2.67h-4.42l-.95,2.67h-1.02s3.63-9.79,3.63-9.79ZM151.81,47.68h-2.84v-.8h6.66v.8h-2.85v8.99h-.99v-8.99h.01ZM144.29,46.89h1v9.79h-1v-9.79ZM136.95,51.52c1.41,0,2.48-.32,2.48-1.99,0-1.45-.85-1.86-2.24-1.86h-1.55v3.84h1.31,0ZM134.64,46.89h2.58c1.99,0,3.26.61,3.26,2.68,0,2.27-1.61,2.74-3.56,2.74h-1.28v4.37h-1v-9.79ZM126.86,56.81c-1.76,0-2.94-.79-3.09-2.54l1.02-.2c.04,1.23.76,1.96,2.09,1.96,1.16,0,2.16-.56,2.16-1.83,0-1.1-.85-1.51-2.2-2.1-1.58-.66-2.86-1.16-2.86-2.82,0-1.75,1.43-2.53,3.06-2.53s2.81.61,2.88,2.23l-1,.18c-.04-1.13-.71-1.67-1.91-1.67-1.06,0-2.02.56-2.02,1.69s1.07,1.57,2.33,2.09c1.62.68,2.75,1.17,2.75,2.82,0,1.83-1.43,2.71-3.19,2.71M116.15,56.05c2.16,0,2.81-2.13,2.79-4.3,0-2.24-.58-4.25-2.79-4.25s-2.82,1.95-2.84,4.25c0,2.19.59,4.3,2.84,4.3M116.14,56.84c-2.89,0-3.87-2.24-3.84-5.04,0-2.77.95-5.11,3.87-5.11s3.82,2.23,3.82,5.07-.97,5.08-3.84,5.08M101.46,46.89h1v4.35h4.71v-4.35h.99v9.79h-.99v-4.64h-4.71v4.64h-1s0-9.79,0-9.79ZM90.31,51.89h-1.47c-1.61,0-2.84.47-2.84,1.99,0,1.79,1.2,2.02,3.13,2.03h1.17v-4.02ZM92.85,51.89h-1.58v4.8h-2.7c-2.05,0-3.57-.56-3.57-2.72,0-1.4.75-2.22,2.27-2.48-1.23-.27-1.86-1-1.85-2.2,0-1.68,1.35-2.51,2.91-2.51.49,0,1.02.07,1.54.2v.79c-.54-.14-.99-.2-1.34-.2-1.11,0-2.12.55-2.12,1.83,0,1.19.82,1.76,2.51,1.76h1.4v-2.2h.95v2.2h1.58v.76-.03ZM72.91,56.8c-2.94,0-4.06-2.1-4.06-5.02,0-2.75,1.06-5.08,3.89-5.08,1.71,0,2.89.8,3.09,2.51l-1.02.18c-.13-1.27-.85-1.89-2.1-1.89-2.17,0-2.82,2.14-2.82,4.22,0,2.34.72,4.29,3.02,4.29.72,0,1.4-.11,1.99-.32v-3.26h-2.22v-.78h3.2v4.64c-1.07.34-2.06.49-2.98.49M57.5,46.89h1.41l4.64,8.78v-8.78h.9v9.79h-1.41l-4.64-8.78v8.78h-.9v-9.79ZM51.38,46.89h1v9.79h-1v-9.79ZM43.01,51.22c1.64,0,2.44-.42,2.48-1.86,0-1.16-.69-1.68-2.12-1.68h-1.88v3.54h1.51ZM40.49,46.89h3.08c1.93,0,2.92.78,2.94,2.37,0,1.27-.58,2.03-1.81,2.31.54.08.93.34,1.16.75.27.51.31,1.5.38,2.43.07.79.21,1.51.4,1.93h-1.06c-.13-.4-.21-.93-.27-1.62-.08-1.02-.14-2.14-.44-2.57-.23-.32-.73-.49-1.51-.49h-1.88v4.68h-1v-9.79h.01ZM30.47,46.89h5.38v.8h-4.39v3.53h4.21v.79h-4.21v3.87h4.54v.8h-5.55v-9.79h.01ZM23.2,47.68h-2.82v-.8h6.66v.8h-2.85v8.99h-.99s0-8.99,0-8.99ZM16.44,53.24l-1.93-5.42s-1.3,3.92-1.89,5.42h3.84-.01ZM13.98,46.89h1.11l3.73,9.79h-1.1l-.99-2.67h-4.42l-.95,2.67h-1.02l3.63-9.79ZM4.49,56.83c-2.84,0-3.73-2.1-3.73-4.97s.96-5.14,3.78-5.14c1.62,0,2.91.8,3.02,2.46l-1.03.2c-.07-1.21-.93-1.85-1.99-1.85-2.12,0-2.75,2.17-2.74,4.28,0,2.24.59,4.21,2.7,4.22,1.14,0,1.99-.69,2.1-1.93l1.02.18c-.23,1.69-1.45,2.53-3.13,2.53"/>
</svg>